<?xml version="1.0" encoding="utf-8"?>
<!-- Svg Vector Icons : http://www.onlinewebfonts.com/icon -->
<!DOCTYPE svg PUBLIC "-//W3C//DTD SVG 1.1//EN" "http://www.w3.org/Graphics/SVG/1.1/DTD/svg11.dtd">
<svg version="1.1" xmlns="http://www.w3.org/2000/svg" xmlns:xlink="http://www.w3.org/1999/xlink" x="0px" y="0px" viewBox="0 0 1000 1000" enable-background="new 0 0 1000 1000" xml:space="preserve">
<metadata> Svg Vector Icons : http://www.onlinewebfonts.com/icon </metadata>
<g><path d="M500.1,937.3c-11.3,0-22.6-4.3-31.2-12.9L93.4,549C39.6,495.1,10,423.6,10,347.5c0-76.1,29.6-147.6,83.4-201.4c53.8-53.8,125.3-83.4,201.4-83.4l0,0c78.8,0,152.1,31.8,205.1,87.4c1.3-1.3,2.5-2.6,3.8-3.9c53.8-53.8,125.3-83.5,201.5-83.5c76.1,0,147.6,29.6,201.4,83.4c111,111,111,291.8,0,402.9L686.1,769.6l-49.8,49.8c-17.2,17.2-45.2,17.2-62.4,0c-17.2-17.2-17.2-45.2,0-62.4l270.4-270.4c76.6-76.6,76.6-201.3,0-278c-37.1-37.1-86.5-57.6-139-57.6c-52.5,0-101.9,20.5-139,57.6c-10.4,10.5-20.1,22.8-28.5,36.6c-8,13.1-22.3,21.1-37.6,21.1l0,0c-15.4,0-29.6-8-37.6-21.1c-36.1-59-98.8-94.2-167.6-94.2c0,0,0,0,0,0c-52.5,0-101.8,20.5-139,57.6c-37.1,37.1-57.6,86.5-57.6,139c0,52.5,20.5,101.9,57.6,139L531.3,862c17.2,17.2,17.2,45.2,0,62.4C522.7,933,511.4,937.3,500.1,937.3z"/></g>
</svg>