<?xml version="1.0" standalone="no"?>
<!DOCTYPE svg PUBLIC "-//W3C//DTD SVG 20010904//EN"
 "http://www.w3.org/TR/2001/REC-SVG-20010904/DTD/svg10.dtd">
<svg version="1.0" xmlns="http://www.w3.org/2000/svg"
 width="285.000000pt" height="285.000000pt" viewBox="0 0 285.000000 285.000000"
 preserveAspectRatio="xMidYMid meet">

<g transform="translate(0.000000,285.000000) scale(0.100000,-0.100000)"
fill="currentColor" stroke="none">
<path d="M267 2839 c-95 -22 -186 -99 -234 -197 l-28 -57 -3 -1135 c-2 -1117
-2 -1136 18 -1202 26 -85 100 -170 187 -213 l58 -30 1155 0 1155 0 62 29 c76
35 144 104 181 184 l27 57 0 1150 0 1150 -28 61 c-36 77 -104 145 -182 181
l-60 28 -1135 2 c-642 1 -1151 -3 -1173 -8z m2290 -180 c38 -14 83 -57 99 -96
12 -27 14 -181 14 -870 0 -829 0 -837 -21 -880 -15 -30 -35 -52 -67 -71 l-47
-27 -1116 0 -1115 0 -43 28 c-27 18 -50 44 -62 70 -18 40 -19 78 -19 879 0
567 3 846 11 865 14 37 57 82 94 99 24 11 234 13 1137 14 758 0 1116 -3 1135
-11z m-1486 -2065 c19 -23 -1 -49 -37 -49 -23 0 -30 5 -32 24 -6 39 43 56 69
25z m169 -12 c0 -11 -50 -274 -56 -294 -8 -26 -64 -25 -64 0 0 18 47 265 55
290 5 13 65 17 65 4z m-730 -25 c14 -7 31 -26 39 -42 19 -40 -2 -101 -44 -130
l-31 -20 23 -40 c30 -52 29 -55 -11 -55 -29 0 -36 5 -57 45 -21 40 -28 45 -54
43 -26 -3 -30 -8 -38 -45 -8 -41 -10 -43 -43 -43 -19 0 -34 2 -34 4 0 4 48
245 55 274 5 21 11 22 88 22 46 0 93 -6 107 -13z m275 -61 c19 -8 35 -11 35
-5 0 5 15 9 34 9 l33 0 -18 -92 c-30 -146 -26 -138 -58 -138 -16 0 -31 5 -33
11 -2 7 -12 7 -31 -2 -62 -28 -133 27 -131 102 2 49 28 87 75 111 41 22 50 22
94 4z m696 -12 c18 -16 19 -16 19 -1 0 12 9 17 30 17 19 0 30 -5 30 -14 0 -41
-43 -215 -58 -236 -38 -52 -120 -74 -191 -49 -34 12 -37 20 -19 48 10 17 14
17 46 4 42 -17 87 -9 107 20 20 29 19 40 -4 27 -64 -34 -151 14 -151 82 0 44
33 96 73 114 38 17 92 12 118 -12z m329 9 c0 -26 -11 -37 -45 -48 -35 -12 -51
-40 -66 -117 -10 -55 -12 -58 -40 -58 -35 0 -35 7 -14 112 25 124 22 118 55
118 17 0 30 -5 30 -11 0 -8 4 -8 13 -1 10 9 34 17 60 21 4 0 7 -7 7 -16z m213
3 c15 -8 27 -11 27 -5 0 5 16 9 35 9 19 0 35 -4 35 -9 0 -17 -40 -203 -46
-212 -7 -13 -52 -11 -56 2 -2 7 -12 7 -32 -1 -41 -15 -81 -4 -111 32 -45 54
-22 147 45 180 42 22 66 22 103 4z m385 -10 c11 -11 20 -10 50 6 41 21 84 18
114 -9 21 -19 23 -79 5 -158 -11 -47 -14 -50 -46 -53 l-33 -3 8 43 c5 24 9 63
9 88 0 38 -3 45 -20 48 -37 5 -56 -21 -74 -99 -16 -72 -17 -74 -49 -77 l-33
-3 8 38 c4 21 8 61 8 88 0 42 -3 50 -20 53 -37 5 -56 -21 -74 -99 -16 -73 -17
-74 -50 -77 -31 -3 -33 -1 -28 20 3 13 14 65 24 117 l17 93 42 -5 c23 -2 48 0
56 5 17 11 69 2 86 -16z m-1358 0 c0 -8 -9 -58 -20 -111 -11 -53 -20 -99 -20
-101 0 -2 -13 -4 -30 -4 -36 0 -37 7 -15 112 25 124 22 118 55 118 19 0 30 -5
30 -14z"/>
<path d="M640 2299 c-144 -58 -132 -280 18 -330 135 -44 271 96 221 228 -13
34 -55 80 -91 99 -31 16 -111 18 -148 3z"/>
<path d="M1423 1512 l-352 -617 706 -3 c389 -1 708 -1 710 1 4 5 -700 1237
-707 1237 -3 -1 -163 -278 -357 -618z"/>
<path d="M638 1267 c-136 -183 -255 -342 -263 -354 l-16 -23 253 0 253 0 115
202 c63 112 115 209 115 218 0 14 -195 289 -205 289 -3 0 -116 -149 -252 -332z"/>
<path d="M376 503 c-3 -10 -8 -35 -12 -55 -6 -37 -5 -38 24 -38 47 0 81 17 94
46 11 23 10 29 -11 45 -30 25 -88 25 -95 2z"/>
<path d="M706 434 c-22 -22 -30 -59 -16 -83 14 -27 63 -28 90 -1 22 22 27 69
8 88 -17 17 -64 15 -82 -4z"/>
<path d="M1377 432 c-45 -49 4 -114 61 -81 22 12 27 22 27 54 0 39 -1 40 -36
43 -24 2 -40 -3 -52 -16z"/>
<path d="M1936 428 c-19 -27 -21 -69 -4 -86 18 -18 63 -14 81 6 22 24 23 88 1
96 -31 12 -63 6 -78 -16z"/>
</g>
</svg>
